<svg width="381" height="481" viewBox="0 0 381 481" fill="none" xmlns="http://www.w3.org/2000/svg">
<path id="lupa" d="M60.5816 267.382V267.398C60.5816 267.414 60.5929 267.414 60.6041 267.414L60.5816 267.382ZM32.6573 147.526C32.6125 147.919 32.5563 148.313 32.5114 148.706C32.5563 148.313 32.6124 147.919 32.6685 147.526H32.6573ZM31.2673 162.054C31.2336 162.652 31.1999 163.25 31.1775 163.848C31.1999 163.25 31.2336 162.652 31.2785 162.054C31.2766 161.943 31.2804 161.833 31.2897 161.723C31.2785 161.833 31.2785 161.943 31.2673 162.054V162.054ZM60.5816 267.398C60.5816 267.414 60.5929 267.414 60.6041 267.414L60.5816 267.383V267.398ZM32.6573 147.526C32.6125 147.919 32.5563 148.313 32.5114 148.706C32.5563 148.313 32.6124 147.919 32.6685 147.526H32.6573ZM31.1775 163.848C31.1999 163.25 31.2336 162.652 31.2785 162.054C31.2766 161.943 31.2804 161.833 31.2897 161.723C31.2785 161.833 31.2785 161.943 31.2673 162.054C31.2336 162.652 31.1999 163.25 31.1775 163.848V163.848ZM377.503 453.392C377.285 453.067 377.053 452.763 376.808 452.479L376.797 452.463L321.284 386.688L319.849 384.988L314.39 378.519L313.022 376.898L305.243 367.675L303.113 365.156L298.707 359.931L296.454 357.255L275.2 332.087L263.014 317.654L261.377 315.718L225.471 273.174C226.021 272.073 226.559 270.971 227.086 269.853C227.512 268.925 227.938 268.012 228.364 267.083C228.408 266.973 228.464 266.863 228.509 266.753C228.756 266.218 228.991 265.667 229.227 265.132C229.361 264.848 229.485 264.565 229.597 264.282C229.776 263.888 229.955 263.479 230.124 263.07C230.292 262.676 230.46 262.267 230.628 261.858C231.413 260.016 232.153 258.159 232.87 256.286L232.937 256.113L233.509 254.586C233.868 253.658 234.215 252.713 234.551 251.769C234.566 251.747 234.574 251.719 234.574 251.69C234.921 250.73 235.269 249.754 235.594 248.778C235.605 248.763 235.605 248.731 235.617 248.715C236.031 247.503 236.435 246.292 236.827 245.048C236.928 244.765 237.018 244.482 237.108 244.198C237.477 243.002 237.847 241.79 238.206 240.578C238.576 239.335 238.935 238.075 239.282 236.816C239.63 235.557 239.977 234.282 240.302 233.023C240.919 230.615 241.498 228.202 242.04 225.783C242.065 225.644 242.095 225.508 242.13 225.374C242.41 224.083 242.679 222.808 242.948 221.517C243.116 220.683 243.273 219.865 243.43 219.031C243.542 218.433 243.654 217.834 243.755 217.236C243.811 217 243.845 216.78 243.889 216.544C244.035 215.741 244.17 214.954 244.304 214.152C244.327 214.026 244.349 213.884 244.372 213.758C244.64 212.137 244.899 210.5 245.134 208.879C245.257 208.06 245.369 207.242 245.481 206.423C245.694 204.787 245.907 203.15 246.087 201.513C246.176 200.741 246.255 199.97 246.333 199.199C246.412 198.507 246.479 197.814 246.546 197.137C246.636 196.256 246.714 195.39 246.782 194.509C247.073 191.03 247.286 187.568 247.421 184.089C247.465 183.05 247.499 182.011 247.533 180.957C247.566 179.745 247.589 178.549 247.6 177.337C247.611 176.329 247.623 175.306 247.623 174.299C247.623 171.261 247.566 168.239 247.454 165.201C247.275 160.338 246.95 155.496 246.479 150.674C242.463 109.459 228.017 71.6508 205.782 44.1589C183.546 16.6671 155.007 1.32828 125.381 0.946275C95.7548 0.564269 67.0199 15.1646 44.429 42.0784C21.838 68.9923 6.89986 106.422 2.34503 147.526C2.23309 148.565 2.12091 149.619 2.01996 150.674C1.65021 154.451 1.3737 158.245 1.19042 162.054C1.13458 163.108 1.0897 164.147 1.05604 165.201C0.0623776 191.89 3.48559 218.539 11.0572 243.059C18.6289 267.579 30.1431 289.302 44.697 306.527C47.4097 309.738 50.1898 312.76 53.0372 315.593C53.0484 315.608 53.0596 315.608 53.0708 315.624C54.0238 316.569 54.9765 317.497 55.9407 318.41C57.4763 319.826 59.0235 321.212 60.5816 322.534C60.705 322.628 60.8284 322.738 60.9516 322.833C62.2968 323.966 63.6534 325.052 65.0098 326.107H65.0207C70.0703 330.004 75.3113 333.392 80.7039 336.243C96.5264 344.601 113.401 348.319 130.286 347.166H130.32C150.027 345.828 169.217 337.854 186.27 323.919C188.747 321.904 191.191 319.748 193.579 317.45C194.173 316.883 194.778 316.301 195.361 315.719C196.078 315.01 196.796 314.27 197.513 313.531C197.525 313.531 197.525 313.515 197.536 313.515C197.589 313.452 197.645 313.394 197.704 313.342C198.186 312.822 198.679 312.303 199.15 311.799C199.273 311.673 199.397 311.547 199.52 311.406C199.552 311.374 199.583 311.337 199.609 311.296C199.89 311.012 200.159 310.697 200.439 310.398C200.719 310.099 200.988 309.785 201.269 309.47C201.316 309.428 201.361 309.38 201.403 309.328C201.717 308.966 202.031 308.62 202.345 308.258C202.67 307.896 202.984 307.518 203.286 307.156C203.6 306.794 203.903 306.432 204.217 306.054C204.486 305.739 204.766 305.409 205.035 305.063C205.125 304.968 205.203 304.858 205.293 304.748C205.328 304.701 205.365 304.659 205.405 304.622C205.775 304.181 206.134 303.725 206.493 303.268C206.582 303.158 206.661 303.048 206.751 302.938C207.3 302.245 207.849 301.553 208.387 300.829C208.51 300.671 208.645 300.498 208.768 300.341C208.892 300.183 209.004 300.026 209.127 299.869C209.284 299.648 209.452 299.444 209.609 299.223C210.013 298.688 210.405 298.137 210.808 297.587L212.131 299.16L212.613 299.727H212.625L212.77 299.916L213.297 300.53L221.122 309.816L221.29 310.021L221.424 310.162L222.31 311.217L224.081 313.326L225.853 315.419L226.111 315.718L234.35 325.477L235.493 326.831L243.441 336.243L284.582 384.988L286.017 386.688L342.326 453.392L356.764 470.501L362.134 476.86C363.274 478.214 364.592 479.239 366.015 479.877C367.437 480.515 368.935 480.753 370.422 480.578C371.91 480.403 373.359 479.817 374.685 478.855C376.012 477.893 377.19 476.573 378.153 474.971C378.96 473.642 379.6 472.13 380.048 470.501C380.862 467.612 381.054 464.452 380.602 461.411C380.15 458.37 379.072 455.582 377.503 453.392V453.392ZM52.7794 88.5343C64.0257 69.8223 78.8129 55.9592 95.4327 48.5465C112.053 41.1338 129.827 40.4739 146.702 46.6431C163.578 52.8123 178.866 65.5588 190.801 83.4102C202.736 101.262 210.83 123.489 214.149 147.526C214.295 148.581 214.43 149.619 214.553 150.674C215.012 154.436 215.349 158.245 215.551 162.054C215.606 163.108 215.663 164.147 215.696 165.201C215.797 167.562 215.842 169.939 215.842 172.3C215.848 186.621 214.159 200.844 210.842 214.387V214.403C207.136 229.588 201.445 243.669 194.061 255.924C193.904 256.176 193.747 256.444 193.579 256.695C192.099 259.151 190.541 261.512 188.937 263.762C188.926 263.778 188.915 263.81 188.904 263.825C188.354 264.597 187.794 265.384 187.233 266.108C186.09 267.666 184.924 269.145 183.736 270.562C181.954 272.75 180.126 274.801 178.254 276.716C177.627 277.361 176.999 277.991 176.36 278.621C175.732 279.25 175.093 279.848 174.454 280.446C173.176 281.643 171.876 282.792 170.564 283.878C169.914 284.428 169.241 284.964 168.58 285.483C167.918 286.018 167.246 286.522 166.573 287.01C165.901 287.513 165.228 288.001 164.544 288.473C163.188 289.434 161.82 290.331 160.43 291.165C159.735 291.606 159.04 292.015 158.345 292.393C157.908 292.644 157.482 292.896 157.045 293.117C156.874 293.227 156.698 293.322 156.518 293.4C156.282 293.542 156.047 293.667 155.812 293.778C155.735 293.826 155.657 293.868 155.576 293.904C155.094 294.171 154.623 294.407 154.13 294.643C153.424 295.005 152.717 295.336 152 295.651C151.283 295.981 150.576 296.296 149.859 296.579C149.141 296.894 148.413 297.178 147.695 297.445C146.967 297.728 146.249 297.996 145.521 298.232C144.747 298.515 143.974 298.767 143.189 299.003C142.505 299.224 141.832 299.412 141.149 299.586C140.51 299.774 139.86 299.932 139.221 300.089C138.324 300.31 137.427 300.514 136.519 300.687C136.026 300.798 135.544 300.892 135.051 300.955C134.838 301.002 134.636 301.034 134.434 301.065C133.806 301.191 133.178 301.286 132.562 301.364C132.394 301.38 132.237 301.411 132.08 301.427C131.396 301.522 130.701 301.6 130.017 301.679C128.549 301.821 127.091 301.915 125.623 301.962C124.883 301.978 124.132 301.994 123.392 301.994C122.652 301.994 121.912 301.978 121.172 301.947C121.172 301.947 121.172 301.962 121.161 301.947C121.15 301.962 121.15 301.962 121.139 301.947C121.137 301.949 121.135 301.95 121.134 301.952C121.132 301.953 121.13 301.953 121.127 301.953C121.125 301.953 121.123 301.953 121.121 301.952C121.119 301.95 121.118 301.949 121.116 301.947C121.08 301.962 121.041 301.962 121.004 301.947C120.477 301.947 119.95 301.915 119.435 301.868C119.054 301.852 118.661 301.836 118.269 301.789C117.742 301.758 117.215 301.71 116.688 301.647C116.52 301.647 116.352 301.616 116.184 301.6C116.105 301.598 116.026 301.587 115.948 301.569C115.41 301.506 114.861 301.443 114.323 301.364C114.054 301.333 113.774 301.301 113.504 301.254C112.686 301.128 111.868 300.986 111.061 300.829C110.141 300.672 109.222 300.483 108.314 300.247C107.888 300.168 107.474 300.058 107.059 299.948C106.51 299.822 105.96 299.68 105.411 299.523C104.839 299.365 104.268 299.208 103.696 299.019C103.236 298.877 102.765 298.736 102.306 298.578C102.081 298.515 101.857 298.437 101.644 298.358C100.467 297.965 99.3013 297.54 98.1466 297.067C97.4181 296.784 96.6893 296.485 95.9719 296.17C94.9853 295.745 94.0101 295.289 93.035 294.801C92.6538 294.628 92.2837 294.439 91.9025 294.234C91.5215 294.061 91.1515 293.857 90.7705 293.652C90.423 293.479 90.0754 293.29 89.739 293.101C89.1785 292.802 88.6292 292.487 88.0799 292.172C86.9477 291.527 85.8379 290.85 84.7281 290.126C84.1002 289.701 83.4727 289.292 82.8561 288.867C80.4235 287.214 78.0283 285.378 75.6702 283.358C75.0873 282.87 74.5046 282.351 73.9216 281.832C73.1928 281.202 72.4867 280.541 71.7806 279.88C71.3881 279.502 71.0069 279.14 70.6256 278.762C69.9195 278.07 69.2244 277.361 68.5407 276.653C68.1819 276.291 67.8231 275.913 67.4757 275.536C66.2313 274.213 65.0096 272.828 63.8101 271.412C63.2384 270.735 62.6666 270.043 62.1061 269.334C61.8707 269.051 61.6351 268.752 61.3997 268.453C61.131 268.107 60.8616 267.776 60.6038 267.414L60.5814 267.383C60.1892 266.895 59.7967 266.375 59.4155 265.856C58.8216 265.069 58.2387 264.266 57.6782 263.448C57.0952 262.645 56.5347 261.811 55.9854 260.992C55.4249 260.174 54.8869 259.34 54.36 258.49C53.8219 257.656 53.295 256.806 52.7792 255.94C52.2748 255.122 51.7816 254.272 51.3106 253.437C50.1672 251.454 49.0761 249.434 48.0374 247.378C47.5554 246.433 47.0959 245.489 46.6473 244.529C46.1654 243.553 45.7055 242.562 45.2684 241.57C44.8089 240.578 44.3716 239.571 43.9457 238.548C43.9348 238.513 43.9196 238.481 43.9009 238.453C43.0601 236.454 42.253 234.44 41.5018 232.394C40.7283 230.316 39.9997 228.217 39.3158 226.098C38.9685 225.043 38.6322 223.973 38.3183 222.903C37.668 220.746 37.0626 218.59 36.5021 216.402C36.2218 215.348 35.964 214.293 35.7062 213.223C35.698 213.152 35.6829 213.083 35.6613 213.018C35.1457 210.846 34.675 208.659 34.2601 206.455C34.2489 206.424 34.2488 206.392 34.2376 206.361C34.0247 205.275 33.823 204.188 33.6437 203.087C33.4642 202.127 33.3074 201.166 33.1615 200.191C32.9935 199.105 32.8254 198.019 32.6795 196.917C32.601 196.35 32.5227 195.784 32.4553 195.217C32.3881 194.745 32.3319 194.257 32.2758 193.785C32.22 193.313 32.1639 192.824 32.1077 192.337C31.9955 191.377 31.8947 190.416 31.8051 189.456C31.6929 188.323 31.6034 187.19 31.5136 186.041C31.4127 184.671 31.3232 183.302 31.2446 181.917C31.1886 180.988 31.1549 180.044 31.1215 179.1C31.0875 178.234 31.0541 177.368 31.0429 176.503C31.0317 176.457 31.0317 176.407 31.0429 176.361C31.0414 176.359 31.0402 176.357 31.0394 176.354C31.0385 176.351 31.0381 176.348 31.0381 176.345C31.0381 176.342 31.0385 176.339 31.0394 176.337C31.0402 176.334 31.0414 176.332 31.0429 176.33C31.0317 176.314 31.0317 176.314 31.0429 176.298C31.0414 176.296 31.0402 176.294 31.0394 176.291C31.0385 176.288 31.0381 176.285 31.0381 176.282C31.0381 176.279 31.0385 176.277 31.0394 176.274C31.0402 176.271 31.0414 176.269 31.0429 176.267C31.0317 175.92 31.0205 175.574 31.0205 175.228C30.998 174.205 30.9869 173.182 30.9869 172.159C30.9869 171.23 30.998 170.317 31.0092 169.388C31.0317 168.098 31.0652 166.807 31.11 165.517C31.11 165.233 31.1324 164.966 31.1439 164.682C31.1549 164.399 31.1661 164.131 31.1773 163.848C31.1997 163.25 31.2334 162.652 31.2783 162.054C31.2764 161.943 31.2802 161.833 31.2895 161.723C31.3231 161.046 31.3678 160.37 31.4127 159.693C31.5024 158.339 31.6146 156.97 31.7377 155.616C31.8051 154.94 31.8612 154.263 31.9397 153.586C31.9845 153.114 32.0404 152.626 32.0965 152.138C32.1414 151.65 32.1975 151.162 32.2648 150.674C32.3431 150.029 32.4217 149.368 32.5112 148.707C32.556 148.313 32.6121 147.92 32.6683 147.526C32.8812 145.952 33.1166 144.378 33.3744 142.804C33.6322 141.215 33.9239 139.641 34.2376 138.067C34.5402 136.477 34.8766 134.887 35.2354 133.298C35.4035 132.495 35.583 131.708 35.7847 130.921C36.1544 129.331 36.5469 127.757 36.9843 126.199C37.186 125.428 37.3989 124.641 37.6343 123.87C38.0828 122.312 38.5536 120.753 39.0355 119.227C39.2822 118.455 39.529 117.684 39.7977 116.913C40.3024 115.386 40.8293 113.859 41.401 112.364C41.9503 110.837 42.5444 109.342 43.1498 107.863C43.7552 106.383 44.3828 104.904 45.0443 103.44C45.3469 102.716 45.6831 101.976 46.0306 101.268C46.7034 99.8198 47.4095 98.3718 48.1271 96.9552C49.5735 94.0903 51.1316 91.2729 52.7794 88.5343ZM31.2673 162.054C31.2336 162.652 31.1999 163.25 31.1775 163.848C31.1999 163.25 31.2336 162.652 31.2785 162.054C31.2766 161.943 31.2804 161.833 31.2897 161.723C31.2785 161.833 31.2785 161.943 31.2673 162.054ZM32.6574 147.526C32.6125 147.919 32.5564 148.313 32.5115 148.706C32.5563 148.313 32.6125 147.919 32.6686 147.526H32.6574ZM60.5817 267.383V267.398C60.5817 267.414 60.5929 267.414 60.6041 267.414L60.5817 267.383Z" fill="#3F3D56"/>
</svg>
